{
  "accessors": [
    {
      "bufferView": 1,
      "componentType": 5126,
      "count": 2459,
      "max": [
        1.1414986848831177,
        2.6493618488311768,
        0.69299405813217163
      ],
      "min": [
        0.63188505172729492,
        1.3877978324890137,
        -4.1408171653747559
      ],
      "type": "VEC3"
    },
    {
      "bufferView": 1,
      "byteOffset": 29508,
      "componentType": 5126,
      "count": 2459,
      "max": [
        0.99994426965713501,
        0.99949127435684204,
        0.96935755014419556
      ],
      "min": [
        -0.99993985891342163,
        -0.99923115968704224,
        -0.98528844118118286
      ],
      "type": "VEC3"
    },
    {
      "bufferView": 2,
      "componentType": 5126,
      "count": 2459,
      "max": [
        0.65882354974746704,
        0.50196081399917603,
        0.50196081399917603,
        1
      ],
      "min": [
        0.50196081399917603,
        0.17647059261798859,
        0.22352941334247589,
        1
      ],
      "type": "VEC4"
    },
    {
      "bufferView": 0,
      "componentType": 5125,
      "count": 14208,
      "max": [
        2458
      ],
      "min": [
        0
      ],
      "type": "SCALAR"
    },
    {
      "bufferView": 1,
      "byteOffset": 59016,
      "componentType": 5126,
      "count": 40788,
      "max": [
        2.8730666637420654,
        2.3603532314300537,
        0.0016969200223684311
      ],
      "min": [
        0.12640982866287231,
        -1.8118965625762939,
        -3.0781960487365723
      ],
      "type": "VEC3"
    },
    {
      "bufferView": 1,
      "byteOffset": 548472,
      "componentType": 5126,
      "count": 40788,
      "max": [
        0.99996650218963623,
        0.99983090162277222,
        0.99900680780410767
      ],
      "min": [
        -0.99966585636138916,
        -0.99994552135467529,
        -0.99999439716339111
      ],
      "type": "VEC3"
    },
    {
      "bufferView": 2,
      "byteOffset": 39344,
      "componentType": 5126,
      "count": 40788,
      "max": [
        0.87450981140136719,
        0.73725491762161255,
        0.67058825492858887,
        1
      ],
      "min": [
        0.047058824449777603,
        0,
        0,
        1
      ],
      "type": "VEC4"
    },
    {
      "bufferView": 0,
      "byteOffset": 56832,
      "componentType": 5125,
      "count": 450816,
      "max": [
        40787
      ],
      "min": [
        0
      ],
      "type": "SCALAR"
    },
    {
      "bufferView": 1,
      "byteOffset": 1037928,
      "componentType": 5126,
      "count": 44378,
      "max": [
        2.9007160663604736,
        2.979069709777832,
        5.0107102394104004
      ],
      "min": [
        0.19288556277751923,
        -0.69990944862365723,
        2.0185484886169434
      ],
      "type": "VEC3"
    },
    {
      "bufferView": 1,
      "byteOffset": 1570464,
      "componentType": 5126,
      "count": 44378,
      "max": [
        0.99999892711639404,
        0.99999034404754639,
        0.99998939037322998
      ],
      "min": [
        -0.99945086240768433,
        -0.99980902671813965,
        -0.99624812602996826
      ],
      "type": "VEC3"
    },
    {
      "bufferView": 2,
      "byteOffset": 691952,
      "componentType": 5126,
      "count": 44378,
      "max": [
        0.84705883264541626,
        0.58431375026702881,
        0.54901963472366333,
        1
      ],
      "min": [
        0.13333334028720856,
        0.0039215688593685627,
        0.011764706112444401,
        1
      ],
      "type": "VEC4"
    },
    {
      "bufferView": 0,
      "byteOffset": 1860096,
      "componentType": 5125,
      "count": 439164,
      "max": [
        44377
      ],
      "min": [
        0
      ],
      "type": "SCALAR"
    },
    {
      "bufferView": 1,
      "byteOffset": 2103000,
      "componentType": 5126,
      "count": 45852,
      "max": [
        1.6267063617706299,
        2.7965168952941895,
        5.0429706573486328
      ],
      "min": [
        -0.77454960346221924,
        -1.053376317024231,
        1.9718273878097534
      ],
      "type": "VEC3"
    },
    {
      "bufferView": 1,
      "byteOffset": 2653224,
      "componentType": 5126,
      "count": 45852,
      "max": [
        0.99847126007080078,
        0.99993640184402466,
        0.99996888637542725
      ],
      "min": [
        -0.99998700618743896,
        -0.99986863136291504,
        -0.99977916479110718
      ],
      "type": "VEC3"
    },
    {
      "bufferView": 2,
      "byteOffset": 1402000,
      "componentType": 5126,
      "count": 45852,
      "max": [
        0.88627451658248901,
        0.63529413938522339,
        0.56470590829849243,
        1
      ],
      "min": [
        0.086274512112140656,
        0,
        0,
        1
      ],
      "type": "VEC4"
    },
    {
      "bufferView": 0,
      "byteOffset": 3616752,
      "componentType": 5125,
      "count": 489948,
      "max": [
        45851
      ],
      "min": [
        0
      ],
      "type": "SCALAR"
    },
    {
      "bufferView": 1,
      "byteOffset": 3203448,
      "componentType": 5126,
      "count": 45662,
      "max": [
        3.0609989166259766,
        2.3613247871398926,
        1.5904451608657837
      ],
      "min": [
        0.45361220836639404,
        -1.823554515838623,
        -1.7196677923202515
      ],
      "type": "VEC3"
    },
    {
      "bufferView": 1,
      "byteOffset": 3751392,
      "componentType": 5126,
      "count": 45662,
      "max": [
        0.99999350309371948,
        0.99998629093170166,
        0.99991452693939209
      ],
      "min": [
        -0.8409077525138855,
        -0.99969404935836792,
        -0.99753940105438232
      ],
      "type": "VEC3"
    },
    {
      "bufferView": 2,
      "byteOffset": 2135632,
      "componentType": 5126,
      "count": 45662,
      "max": [
        0.85098040103912354,
        0.65882354974746704,
        0.65490198135375977,
        1
      ],
      "min": [
        0.054901961237192154,
        0,
        0,
        1
      ],
      "type": "VEC4"
    },
    {
      "bufferView": 0,
      "byteOffset": 5576544,
      "componentType": 5125,
      "count": 498210,
      "max": [
        45661
      ],
      "min": [
        0
      ],
      "type": "SCALAR"
    },
    {
      "bufferView": 1,
      "byteOffset": 4299336,
      "componentType": 5126,
      "count": 50448,
      "max": [
        1.8634408712387085,
        2.3671567440032959,
        1.6363474130630493
      ],
      "min": [
        -1.6557623147964478,
        -2.0002446174621582,
        -1.8720518350601196
      ],
      "type": "VEC3"
    },
    {
      "bufferView": 1,
      "byteOffset": 4904712,
      "componentType": 5126,
      "count": 50448,
      "max": [
        0.97398549318313599,
        0.999977707862854,
        0.99963164329528809
      ],
      "min": [
        -0.99998569488525391,
        -0.99998641014099121,
        -0.99982362985610962
      ],
      "type": "VEC3"
    },
    {
      "bufferView": 2,
      "byteOffset": 2866224,
      "componentType": 5126,
      "count": 50448,
      "max": [
        0.84705883264541626,
        0.62745100259780884,
        0.52549022436141968,
        1
      ],
      "min": [
        0.074509806931018829,
        0.0039215688593685627,
        0.0039215688593685627,
        1
      ],
      "type": "VEC4"
    },
    {
      "bufferView": 0,
      "byteOffset": 7569384,
      "componentType": 5125,
      "count": 509820,
      "max": [
        50447
      ],
      "min": [
        0
      ],
      "type": "SCALAR"
    },
    {
      "bufferView": 1,
      "byteOffset": 5510088,
      "componentType": 5126,
      "count": 53525,
      "max": [
        1.9694836139678955,
        2.3626177310943604,
        0.088889680802822113
      ],
      "min": [
        -1.1180847883224487,
        -2.0507018566131592,
        -3.1408145427703857
      ],
      "type": "VEC3"
    },
    {
      "bufferView": 1,
      "byteOffset": 6152388,
      "componentType": 5126,
      "count": 53525,
      "max": [
        0.99843859672546387,
        0.99992167949676514,
        0.99847447872161865
      ],
      "min": [
        -0.99995946884155273,
        -0.9999234676361084,
        -0.99996191263198853
      ],
      "type": "VEC3"
    },
    {
      "bufferView": 2,
      "byteOffset": 3673392,
      "componentType": 5126,
      "count": 53525,
      "max": [
        0.96470588445663452,
        0.95686274766921997,
        0.9529411792755127,
        1
      ],
      "min": [
        0.086274512112140656,
        0.0039215688593685627,
        0,
        1
      ],
      "type": "VEC4"
    },
    {
      "bufferView": 0,
      "byteOffset": 9608664,
      "componentType": 5125,
      "count": 612480,
      "max": [
        53524
      ],
      "min": [
        0
      ],
      "type": "SCALAR"
    },
    {
      "bufferView": 1,
      "byteOffset": 6794688,
      "componentType": 5126,
      "count": 65532,
      "max": [
        2.8928241729736328,
        2.8211727142333984,
        3.315305233001709
      ],
      "min": [
        0.21852506697177887,
        -1.4841365814208984,
        0.13860668241977692
      ],
      "type": "VEC3"
    },
    {
      "bufferView": 1,
      "byteOffset": 7581072,
      "componentType": 5126,
      "count": 65532,
      "max": [
        0.99999594688415527,
        0.99998289346694946,
        0.99998050928115845
      ],
      "min": [
        -0.89103013277053833,
        -0.99986773729324341,
        -0.9997820258140564
      ],
      "type": "VEC3"
    },
    {
      "bufferView": 2,
      "byteOffset": 4529792,
      "componentType": 5126,
      "count": 65532,
      "max": [
        0.91764706373214722,
        0.69803923368453979,
        0.63921570777893066,
        1
      ],
      "min": [
        0.17254902422428131,
        0.019607843831181526,
        0.023529412224888802,
        1
      ],
      "type": "VEC4"
    },
    {
      "bufferView": 0,
      "byteOffset": 12058584,
      "componentType": 5125,
      "count": 474696,
      "max": [
        65531
      ],
      "min": [
        0
      ],
      "type": "SCALAR"
    },
    {
      "bufferView": 1,
      "byteOffset": 8367456,
      "componentType": 5126,
      "count": 26799,
      "max": [
        2.8926906585693359,
        2.7313435077667236,
        3.3291802406311035
      ],
      "min": [
        0.21852506697177887,
        -1.8679522275924683,
        0.18506954610347748
      ],
      "type": "VEC3"
    },
    {
      "bufferView": 1,
      "byteOffset": 8689044,
      "componentType": 5126,
      "count": 26799,
      "max": [
        0.99999111890792847,
        0.99989736080169678,
        0.9994809627532959
      ],
      "min": [
        -0.9947628378868103,
        -0.99992674589157104,
        -0.99781173467636108
      ],
      "type": "VEC3"
    },
    {
      "bufferView": 2,
      "byteOffset": 5578304,
      "componentType": 5126,
      "count": 26799,
      "max": [
        0.90196079015731812,
        0.7137255072593689,
        0.59607845544815063,
        1
      ],
      "min": [
        0.094117648899555206,
        0.0039215688593685627,
        0.0039215688593685627,
        1
      ],
      "type": "VEC4"
    },
    {
      "bufferView": 0,
      "byteOffset": 13957368,
      "componentType": 5125,
      "count": 142860,
      "max": [
        26798
      ],
      "min": [
        0
      ],
      "type": "SCALAR"
    },
    {
      "bufferView": 1,
      "byteOffset": 9010632,
      "componentType": 5126,
      "count": 65532,
      "max": [
        1.9058257341384888,
        2.6006097793579102,
        3.4516544342041016
      ],
      "min": [
        -1.2820404767990112,
        -2.0215063095092773,
        -0.044516328722238541
      ],
      "type": "VEC3"
    },
    {
      "bufferView": 1,
      "byteOffset": 9797016,
      "componentType": 5126,
      "count": 65532,
      "max": [
        0.9998050332069397,
        0.99999779462814331,
        0.99977850914001465
      ],
      "min": [
        -0.99999964237213135,
        -0.99990886449813843,
        -0.99694430828094482
      ],
      "type": "VEC3"
    },
    {
      "bufferView": 2,
      "byteOffset": 6007088,
      "componentType": 5126,
      "count": 65532,
      "max": [
        0.96470588445663452,
        0.83921569585800171,
        0.72156864404678345,
        1
      ],
      "min": [
        0.14509804546833038,
        0.015686275437474251,
        0.015686275437474251,
        1
      ],
      "type": "VEC4"
    },
    {
      "bufferView": 0,
      "byteOffset": 14528808,
      "componentType": 5125,
      "count": 551745,
      "max": [
        65531
      ],
      "min": [
        0
      ],
      "type": "SCALAR"
    },
    {
      "bufferView": 1,
      "byteOffset": 10583400,
      "componentType": 5126,
      "count": 18028,
      "max": [
        1.9241596460342407,
        2.5517270565032959,
        3.411175012588501
      ],
      "min": [
        -1.273395299911499,
        -2.026209831237793,
        -0.032394800335168839
      ],
      "type": "VEC3"
    },
    {
      "bufferView": 1,
      "byteOffset": 10799736,
      "componentType": 5126,
      "count": 18028,
      "max": [
        0.99996089935302734,
        0.99968099594116211,
        0.99917936325073242
      ],
      "min": [
        -0.99999058246612549,
        -0.99976629018783569,
        -0.9911540150642395
      ],
      "type": "VEC3"
    },
    {
      "bufferView": 2,
      "byteOffset": 7055600,
      "componentType": 5126,
      "count": 18028,
      "max": [
        0.89411765336990356,
        0.72156864404678345,
        0.56862747669219971,
        1
      ],
      "min": [
        0.17647059261798859,
        0.015686275437474251,
        0.015686275437474251,
        1
      ],
      "type": "VEC4"
    },
    {
      "bufferView": 0,
      "byteOffset": 16735788,
      "componentType": 5125,
      "count": 92757,
      "max": [
        18027
      ],
      "min": [
        0
      ],
      "type": "SCALAR"
    }
  ],
  "asset": {
    "extras": {
      "author": "lissiecowley (https://sketchfab.com/lissiecowley)",
      "license": "CC-BY-NC-4.0 (http://creativecommons.org/licenses/by-nc/4.0/)",
      "source": "https://sketchfab.com/3d-models/polycystic-kidney-5cbd965d6110497e8f4013833e72cbe9",
      "title": "Polycystic Kidney"
    },
    "generator": "Sketchfab-4.81.0",
    "version": "2.0"
  },
  "bufferViews": [
    {
      "buffer": 0,
      "byteLength": 17106816,
      "byteOffset": 0,
      "name": "floatBufferViews",
      "target": 34963
    },
    {
      "buffer": 0,
      "byteLength": 11016072,
      "byteOffset": 17106816,
      "byteStride": 12,
      "name": "floatBufferViews",
      "target": 34962
    },
    {
      "buffer": 0,
      "byteLength": 7344048,
      "byteOffset": 28122888,
      "byteStride": 16,
      "name": "floatBufferViews",
      "target": 34962
    }
  ],
  "buffers": [
    {
      "byteLength": 35466936,
      "uri": "scene.bin"
    }
  ],
  "materials": [
    {
      "doubleSided": true,
      "emissiveFactor": [
        0,
        0,
        0
      ],
      "name": "material_0",
      "pbrMetallicRoughness": {
        "baseColorFactor": [
          1,
          1,
          1,
          1
        ],
        "metallicFactor": 0,
        "roughnessFactor": 0.20000000000000001
      }
    }
  ],
  "meshes": [
    {
      "primitives": [
        {
          "attributes": {
            "COLOR_0": 2,
            "NORMAL": 1,
            "POSITION": 0
          },
          "indices": 3,
          "material": 0,
          "mode": 4
        }
      ]
    },
    {
      "primitives": [
        {
          "attributes": {
            "COLOR_0": 6,
            "NORMAL": 5,
            "POSITION": 4
          },
          "indices": 7,
          "material": 0,
          "mode": 4
        }
      ]
    },
    {
      "primitives": [
        {
          "attributes": {
            "COLOR_0": 10,
            "NORMAL": 9,
            "POSITION": 8
          },
          "indices": 11,
          "material": 0,
          "mode": 4
        }
      ]
    },
    {
      "primitives": [
        {
          "attributes": {
            "COLOR_0": 14,
            "NORMAL": 13,
            "POSITION": 12
          },
          "indices": 15,
          "material": 0,
          "mode": 4
        }
      ]
    },
    {
      "primitives": [
        {
          "attributes": {
            "COLOR_0": 18,
            "NORMAL": 17,
            "POSITION": 16
          },
          "indices": 19,
          "material": 0,
          "mode": 4
        }
      ]
    },
    {
      "primitives": [
        {
          "attributes": {
            "COLOR_0": 22,
            "NORMAL": 21,
            "POSITION": 20
          },
          "indices": 23,
          "material": 0,
          "mode": 4
        }
      ]
    },
    {
      "primitives": [
        {
          "attributes": {
            "COLOR_0": 26,
            "NORMAL": 25,
            "POSITION": 24
          },
          "indices": 27,
          "material": 0,
          "mode": 4
        }
      ]
    },
    {
      "primitives": [
        {
          "attributes": {
            "COLOR_0": 30,
            "NORMAL": 29,
            "POSITION": 28
          },
          "indices": 31,
          "material": 0,
          "mode": 4
        }
      ]
    },
    {
      "primitives": [
        {
          "attributes": {
            "COLOR_0": 34,
            "NORMAL": 33,
            "POSITION": 32
          },
          "indices": 35,
          "material": 0,
          "mode": 4
        }
      ]
    },
    {
      "primitives": [
        {
          "attributes": {
            "COLOR_0": 38,
            "NORMAL": 37,
            "POSITION": 36
          },
          "indices": 39,
          "material": 0,
          "mode": 4
        }
      ]
    },
    {
      "primitives": [
        {
          "attributes": {
            "COLOR_0": 42,
            "NORMAL": 41,
            "POSITION": 40
          },
          "indices": 43,
          "material": 0,
          "mode": 4
        }
      ]
    }
  ],
  "nodes": [
    {
      "children": [
        1
      ],
      "name": "RootNode (gltf orientation matrix)",
      "rotation": [
        -0.70710678118654746,
        -0,
        -0,
        0.70710678118654757
      ]
    },
    {
      "children": [
        2
      ],
      "matrix": [
        -0.036642417311668396,
        -0.9747045636177063,
        0.22047312557697296,
        0,
        0.97161078453063965,
        0.016852289438247681,
        0.23598417639732361,
        0,
        -0.23373031616210938,
        0.22286109626293182,
        0.94641590118408203,
        0,
        0.38841187953948975,
        1.0980219841003418,
        -0.088924199342727661,
        1
      ],
      "name": "RootNode (model correction matrix)"
    },
    {
      "children": [
        3,
        4,
        5,
        6,
        7,
        8,
        9,
        10,
        11,
        12,
        13
      ],
      "name": "polycystic kidney for sketchfab.OBJ.cleaner.materialmerger.gles"
    },
    {
      "mesh": 0,
      "name": ""
    },
    {
      "mesh": 1,
      "name": ""
    },
    {
      "mesh": 2,
      "name": ""
    },
    {
      "mesh": 3,
      "name": ""
    },
    {
      "mesh": 4,
      "name": ""
    },
    {
      "mesh": 5,
      "name": ""
    },
    {
      "mesh": 6,
      "name": ""
    },
    {
      "mesh": 7,
      "name": ""
    },
    {
      "mesh": 8,
      "name": ""
    },
    {
      "mesh": 9,
      "name": ""
    },
    {
      "mesh": 10,
      "name": ""
    }
  ],
  "scene": 0,
  "scenes": [
    {
      "name": "OSG_Scene",
      "nodes": [
        0
      ]
    }
  ]
}

